<?xml version="1.0" encoding="UTF-8" standalone="no"?>
<!DOCTYPE svg PUBLIC "-//W3C//DTD SVG 1.1//EN" "http://www.w3.org/Graphics/SVG/1.1/DTD/svg11.dtd">
<svg version="1.1" xmlns="http://www.w3.org/2000/svg" xmlns:xlink="http://www.w3.org/1999/xlink" preserveAspectRatio="xMidYMid meet" viewBox="0 0 640 640" width="640" height="640"><defs><path d="M640 320C640 496.61 496.61 640 320 640C143.39 640 0 496.61 0 320C0 143.39 143.39 0 320 0C496.61 0 640 143.39 640 320Z" id="e2EEmKYvis"></path><path d="M560 320C560 452.46 452.46 560 320 560C187.54 560 80 452.46 80 320C80 187.54 187.54 80 320 80C452.46 80 560 187.54 560 320Z" id="a6XiagtDD"></path><path d="M206.85 150.3L489.72 433.12L433.15 489.7L150.28 206.88L206.85 150.3Z" id="c12A3893oO"></path><path d="M433.15 150.3L150.28 433.12L206.85 489.7L489.72 206.88L433.15 150.3Z" id="b1ijuo5gf2"></path></defs><g><g><g><use xlink:href="#e2EEmKYvis" opacity="1" fill="#dd0000" fill-opacity="1"></use></g><g><use xlink:href="#a6XiagtDD" opacity="1" fill="#ffffff" fill-opacity="1"></use></g><g><use xlink:href="#c12A3893oO" opacity="1" fill="#dd0000" fill-opacity="1"></use></g><g><use xlink:href="#b1ijuo5gf2" opacity="1" fill="#dd0000" fill-opacity="1"></use></g></g></g></svg>