<?xml version="1.0" encoding="UTF-8" standalone="no"?>
<!DOCTYPE svg PUBLIC "-//W3C//DTD SVG 1.1//EN" "http://www.w3.org/Graphics/SVG/1.1/DTD/svg11.dtd">
<svg version="1.1" xmlns="http://www.w3.org/2000/svg" xmlns:xlink="http://www.w3.org/1999/xlink" preserveAspectRatio="xMidYMid meet" viewBox="0 0 640 640" width="640" height="640"><defs><path d="M640 320C640 496.61 496.61 640 320 640C143.39 640 0 496.61 0 320C0 143.39 143.39 0 320 0C496.61 0 640 143.39 640 320Z" id="boJWnKEPQ"></path><path d="M560 320C560 452.46 452.46 560 320 560C187.54 560 80 452.46 80 320C80 187.54 187.54 80 320 80C452.46 80 560 187.54 560 320Z" id="b9CoN2dOw"></path><path d="M280 240L360 240L360 520L280 520L280 240Z" id="e5VcwTOVDV"></path><path d="M370 160C370 187.6 347.6 210 320 210C292.4 210 270 187.6 270 160C270 132.4 292.4 110 320 110C347.6 110 370 132.4 370 160Z" id="bbQgzDiND"></path></defs><g><g><g><use xlink:href="#boJWnKEPQ" opacity="1" fill="#0000dd" fill-opacity="1"></use></g><g><use xlink:href="#b9CoN2dOw" opacity="1" fill="#ffffff" fill-opacity="1"></use></g><g><use xlink:href="#e5VcwTOVDV" opacity="1" fill="#0000dd" fill-opacity="1"></use></g><g><use xlink:href="#bbQgzDiND" opacity="1" fill="#0000dd" fill-opacity="1"></use></g></g></g></svg>