<?xml version="1.0" encoding="UTF-8" standalone="no"?>
<!DOCTYPE svg PUBLIC "-//W3C//DTD SVG 1.1//EN" "http://www.w3.org/Graphics/SVG/1.1/DTD/svg11.dtd">
<svg version="1.1" xmlns="http://www.w3.org/2000/svg" xmlns:xlink="http://www.w3.org/1999/xlink" preserveAspectRatio="xMidYMid meet" viewBox="0 0 640 640" width="640" height="640"><defs><path d="M640 320C640 496.61 496.61 640 320 640C143.39 640 0 496.61 0 320C0 143.39 143.39 0 320 0C496.61 0 640 143.39 640 320Z" id="e8N1CRIc1"></path><path d="M560 320C560 452.46 452.46 560 320 560C187.54 560 80 452.46 80 320C80 187.54 187.54 80 320 80C452.46 80 560 187.54 560 320Z" id="aKdRxwZIQ"></path><path d="M296.56 158.64L458 320.04L401.44 376.62L240 215.21L296.56 158.64Z" id="fUc8O42pS"></path><path d="M401.44 263.38L240 424.79L296.56 481.36L458 319.96L401.44 263.38Z" id="f6ssXPn8wA"></path></defs><g><g><g><use xlink:href="#e8N1CRIc1" opacity="1" fill="#cccccc" fill-opacity="1"></use></g><g><use xlink:href="#aKdRxwZIQ" opacity="1" fill="#ffffff" fill-opacity="1"></use></g><g><use xlink:href="#fUc8O42pS" opacity="1" fill="#cccccc" fill-opacity="1"></use></g><g><use xlink:href="#f6ssXPn8wA" opacity="1" fill="#cccccc" fill-opacity="1"></use></g></g></g></svg>