<?xml version="1.0" encoding="UTF-8" standalone="no"?>
<!DOCTYPE svg PUBLIC "-//W3C//DTD SVG 1.1//EN" "http://www.w3.org/Graphics/SVG/1.1/DTD/svg11.dtd">
<svg version="1.1" xmlns="http://www.w3.org/2000/svg" xmlns:xlink="http://www.w3.org/1999/xlink" preserveAspectRatio="xMidYMid meet" viewBox="0 0 640 640" width="640" height="640"><defs><path d="M640 320C640 496.61 496.61 640 320 640C143.39 640 0 496.61 0 320C0 143.39 143.39 0 320 0C496.61 0 640 143.39 640 320Z" id="bbx5c6iSy"></path><path d="M560 320C560 452.46 452.46 560 320 560C187.54 560 80 452.46 80 320C80 187.54 187.54 80 320 80C452.46 80 560 187.54 560 320Z" id="bsNyFzgjl"></path><path d="M204.63 293.37L334.71 423.43L278.15 480L148.06 349.94L204.63 293.37Z" id="c936IKNuOr"></path><path d="M463.44 182.02L221.99 423.42L278.56 479.99L520 238.6L463.44 182.02Z" id="d7igFfay7"></path></defs><g><g><g><use xlink:href="#bbx5c6iSy" opacity="1" fill="#00dd00" fill-opacity="1"></use></g><g><use xlink:href="#bsNyFzgjl" opacity="1" fill="#ffffff" fill-opacity="1"></use></g><g><use xlink:href="#c936IKNuOr" opacity="1" fill="#00dd00" fill-opacity="1"></use></g><g><use xlink:href="#d7igFfay7" opacity="1" fill="#00dd00" fill-opacity="1"></use></g></g></g></svg>