<?xml version="1.0" encoding="UTF-8" standalone="no"?>
<!DOCTYPE svg PUBLIC "-//W3C//DTD SVG 1.1//EN" "http://www.w3.org/Graphics/SVG/1.1/DTD/svg11.dtd">
<svg version="1.1" xmlns="http://www.w3.org/2000/svg" xmlns:xlink="http://www.w3.org/1999/xlink" preserveAspectRatio="xMidYMid meet" viewBox="0 0 640 640" width="640" height="640"><defs><path d="M640 320C640 496.61 496.61 640 320 640C143.39 640 0 496.61 0 320C0 143.39 143.39 0 320 0C496.61 0 640 143.39 640 320Z" id="a1kpwFDduk"></path><path d="M560 320C560 452.46 452.46 560 320 560C187.54 560 80 452.46 80 320C80 187.54 187.54 80 320 80C452.46 80 560 187.54 560 320Z" id="a1rbdmC4fR"></path><path d="M280 120L360 120L360 400L280 400L280 120Z" id="a9ULFvCfWF"></path><path d="M370 480C370 507.6 347.6 530 320 530C292.4 530 270 507.6 270 480C270 452.4 292.4 430 320 430C347.6 430 370 452.4 370 480Z" id="a1lUPwuKtM"></path></defs><g><g><g><use xlink:href="#a1kpwFDduk" opacity="1" fill="#ffcc00" fill-opacity="1"></use></g><g><use xlink:href="#a1rbdmC4fR" opacity="1" fill="#ffffff" fill-opacity="1"></use></g><g><use xlink:href="#a9ULFvCfWF" opacity="1" fill="#ffcc00" fill-opacity="1"></use></g><g><use xlink:href="#a1lUPwuKtM" opacity="1" fill="#ffcc00" fill-opacity="1"></use></g></g></g></svg>