<?xml version="1.0" encoding="UTF-8" standalone="no"?>
<!DOCTYPE svg PUBLIC "-//W3C//DTD SVG 1.1//EN" "http://www.w3.org/Graphics/SVG/1.1/DTD/svg11.dtd">
<svg version="1.1" xmlns="http://www.w3.org/2000/svg" xmlns:xlink="http://www.w3.org/1999/xlink" preserveAspectRatio="xMidYMid meet" viewBox="0 0 640 640" width="640" height="640"><defs><path d="M600 320C600 474.54 474.54 600 320 600C165.46 600 40 474.54 40 320C40 165.46 165.46 40 320 40C474.54 40 600 165.46 600 320Z" id="b4qhvWuCT"></path><path d="M280 120L360 120L360 400L280 400L280 120Z" id="f2xtJBC3c1"></path><path d="M370 480C370 507.6 347.6 530 320 530C292.4 530 270 507.6 270 480C270 452.4 292.4 430 320 430C347.6 430 370 452.4 370 480Z" id="b6oe5CWycL"></path></defs><g><g><g><use xlink:href="#b4qhvWuCT" opacity="1" fill="#ffffff" fill-opacity="0"></use><g><use xlink:href="#b4qhvWuCT" opacity="1" fill-opacity="0" stroke="#ffcc00" stroke-width="80" stroke-opacity="1"></use></g></g><g><use xlink:href="#f2xtJBC3c1" opacity="1" fill="#ffcc00" fill-opacity="1"></use></g><g><use xlink:href="#b6oe5CWycL" opacity="1" fill="#ffcc00" fill-opacity="1"></use></g></g></g></svg>